#!OML:ASF H:\MichaelJackson\Top Level 1\Subject 1\Session 1\male.ASF
:FULLY-SPECIFIED
:DEGREES
963
root 2.03277 16.0673 12.2563 12.7832 -5.87116 -1.90588
lowerback -1.16158 0.740846 6.5469
upperback -2.43342 0.953002 -2.7529
thorax -1.71781 0.334961 -6.55419
lowerneck -8.7903 2.93026 6.96241
upperneck 0.708787 3.12593 1.18037
head 1.82465 1.62251 -0.68256
rclavicle 2.28602e-015 4.77083e-015
rhumerus 9.74919 -27.0627 2.60427
rradius 25.6301
rwrist -10.7727
rhand -35.2648 -47.6679
rfingers 7.12502
rthumb -8.40034 -77.4808
lclavicle 2.28602e-015 4.77083e-015
lhumerus -53.1963 -38.9531 118.644
lradius 47.5543
lwrist 19.0295
lhand 40.2303 32.4917
lfingers 7.12502
lthumb 62.5858 43.2365
rfemur -27.9177 -6.09478 1.92773
rtibia 36.693
rfoot -16.5745 -4.16336
rtoes -35.7194
lfemur -0.937822 5.18713 6.59712
ltibia 6.68337
lfoot -14.4437 -1.63095
ltoes -34.1227
964
root 2.03566 16.0667 12.2392 12.7893 -5.74846 -1.87649
lowerback -1.19895 0.703065 6.52216
upperback -2.42468 0.900054 -2.75166
thorax -1.69649 0.309914 -6.53813
lowerneck -8.81109 2.93294 6.97331
upperneck 0.65546 3.1289 1.15768
head 1.8116 1.62204 -0.691563
rclavicle 9.83984e-015 -3.18055e-014
rhumerus 9.70639 -27.0885 2.57043
rradius 25.6292
rwrist -10.7749
rhand -35.294 -47.6543
rfingers 7.12502
rthumb -8.42851 -77.4661
lclavicle 9.83984e-015 -3.18055e-014
lhumerus -53.202 -38.9987 118.709
lradius 47.4968
lwrist 18.7845
lhand 40.296 32.3039
lfingers 7.12502
lthumb 62.6401 42.9773
rfemur -27.9165 -5.92874 1.87638
rtibia 36.685
rfoot -16.537 -4.40503
rtoes -35.4865
lfemur -1.10905 5.07025 6.50107
ltibia 6.77456
lfoot -14.3735 -1.2281
ltoes -33.9989
965
root 2.03848 16.0667 12.2228 12.7869 -5.59245 -1.85635
lowerback -1.23558 0.664101 6.51434
upperback -2.41437 0.845581 -2.74997
thorax -1.67404 0.2839 -6.53137
lowerneck -8.82043 2.92941 6.97518
upperneck 0.608853 3.12491 1.14908
head 1.79798 1.61857 -0.694914
rclavicle -2.66371e-014 2.38542e-015
rhumerus 9.62867 -27.0961 2.56855
rradius 25.6307
rwrist -10.7722
rhand -35.3296 -47.644
rfingers 7.12502
rthumb -8.46286 -77.4544
lclavicle -2.66371e-014 2.38542e-015
lhumerus -53.1893 -39.0387 118.755
lradius 47.4231
lwrist 18.5257
lhand 40.3909 32.1073
lfingers 7.12502
lthumb 62.7184 42.677
rfemur -27.8853 -5.76533 1.83378
rtibia 36.6638
rfoot -16.4736 -4.66014
rtoes -35.2678
lfemur -1.294 4.92148 6.42403
ltibia 6.87871
lfoot -14.3111 -0.860999
ltoes -33.8965
966
root 2.04138 16.0672 12.2073 12.7728 -5.41479 -1.85144
lowerback -1.26462 0.626707 6.52743
upperback -2.40294 0.793698 -2.74516
thorax -1.65416 0.258792 -6.53345
lowerneck -8.82735 2.91982 6.96571
upperneck 0.579825 3.1134 1.15169
head 1.78901 1.61209 -0.693023
rclavicle 1.21259e-014 2.14687e-014
rhumerus 9.52615 -27.0917 2.59316
rradius 25.6296
rwrist -10.7497
rhand -35.3559 -47.6418
rfingers 7.12502
rthumb -8.48826 -77.4512
lclavicle 1.21259e-014 2.14687e-014
lhumerus -53.1556 -39.0589 118.772
lradius 47.3406
lwrist 18.2861
lhand 40.5078 31.9298
lfingers 7.12502
lthumb 62.8148 42.3709
rfemur -27.826 -5.60023 1.80497
rtibia 36.63
rfoot -16.3873 -4.91954
rtoes -35.0586
lfemur -1.48144 4.75054 6.36868
ltibia 6.99672
lfoot -14.2537 -0.520962
ltoes -33.8036
967
root 2.04455 16.068 12.1925 12.748 -5.22901 -1.86233
lowerback -1.28338 0.594005 6.56094
upperback -2.39243 0.748745 -2.73746
thorax -1.63981 0.236605 -6.54435
lowerneck -8.83414 2.90638 6.94721
upperneck 0.572757 3.09682 1.1626
head 1.78673 1.60387 -0.68707
rclavicle 3.97569e-016 3.18055e-015
rhumerus 9.40773 -27.0788 2.63684
rradius 25.6247
rwrist -10.7129
rhand -35.373 -47.6455
rfingers 7.12502
rthumb -8.50476 -77.4542
lclavicle 3.97569e-016 3.18055e-015
lhumerus -53.1071 -39.0547 118.76
lradius 47.2622
lwrist 18.1038
lhand 40.6123 31.784
lfingers 7.12502
lthumb 62.9008 42.1092
rfemur -27.7459 -5.43661 1.79119
rtibia 36.5846
rfoot -16.2859 -5.17157
rtoes -34.862
lfemur -1.66363 4.56982 6.33152
ltibia 7.12823
lfoot -14.2016 -0.19885
ltoes -33.7026
